<svg xmlns="http://www.w3.org/2000/svg" version="1.1" xmlns:xlink="http://www.w3.org/1999/xlink" xmlns:svgjs="http://svgjs.com/svgjs" width="1440" height="800" preserveAspectRatio="none" viewBox="0 0 1440 800"><g mask="url(&quot;#SvgjsMask1053&quot;)" fill="none"><rect width="1440" height="800" x="0" y="0" fill="url(#SvgjsLinearGradient1054)"></rect><path d="M1512 800L0 800 L0 450.37Q26.77 405.14, 72 431.92Q121.01 360.93, 192 409.94Q275.7 373.64, 312 457.35Q355.42 380.77, 432 424.19Q477.77 397.96, 504 443.73Q510.1 377.83, 576 383.93Q587.24 323.17, 648 334.41Q692.84 307.25, 720 352.08Q794.66 354.75, 792 429.41Q845.67 411.09, 864 464.76Q873.33 402.09, 936 411.42Q958.16 361.59, 1008 383.75Q1051.69 355.44, 1080 399.13Q1130.88 378.01, 1152 428.9Q1234.88 391.77, 1272 474.65Q1287.68 370.33, 1392 386.01Q1435.83 309.84, 1512 353.67z" fill="#182f5d"></path><path d="M1536 800L0 800 L0 543.52Q-14.55 456.97, 72 442.42Q176.46 474.88, 144 579.35Q141.13 456.48, 264 453.6Q318.79 388.39, 384 443.19Q470.34 409.53, 504 495.88Q613.33 485.21, 624 594.55Q677.1 527.64, 744 580.74Q752.66 517.4, 816 526.07Q838.52 476.6, 888 499.12Q902.25 441.38, 960 455.63Q1033.52 409.15, 1080 482.67Q1167.94 498.61, 1152 586.55Q1198.53 561.08, 1224 607.6Q1243.63 507.23, 1344 526.86Q1369.25 480.11, 1416 505.35Q1507.51 476.87, 1536 568.38z" fill="#25467d"></path><path d="M1464 800L0 800 L0 664.85Q56.49 649.34, 72 705.82Q73.65 635.48, 144 637.13Q167.02 540.15, 264 563.18Q307.17 534.35, 336 577.51Q446.58 568.09, 456 678.66Q510.27 612.93, 576 667.2Q610.8 582, 696 616.8Q741.29 590.09, 768 635.37Q863.8 611.17, 888 706.98Q927.9 626.88, 1008 666.79Q1049.41 636.2, 1080 677.62Q1109.39 587.01, 1200 616.41Q1215.08 559.48, 1272 574.56Q1320.32 550.88, 1344 599.19Q1437.86 573.05, 1464 666.91z" fill="#356cb1"></path><path d="M1488 800L0 800 L0 748.45Q39.98 716.43, 72 756.41Q101.38 665.79, 192 695.18Q237.45 668.63, 264 714.07Q339.49 669.56, 384 745.04Q464.72 705.75, 504 786.47Q555.68 766.15, 576 817.83Q587 756.84, 648 767.84Q662.76 710.6, 720 725.36Q794.01 679.38, 840 753.39Q904.16 745.55, 912 809.7Q927.34 753.04, 984 768.38Q1054.93 719.31, 1104 790.24Q1145.28 759.52, 1176 800.81Q1214.59 719.4, 1296 757.99Q1387.69 729.68, 1416 821.37Q1430.74 764.11, 1488 778.84z" fill="white"></path></g><defs><mask id="SvgjsMask1053"><rect width="1440" height="800" fill="#ffffff"></rect></mask><linearGradient x1="11.11%" y1="-20%" x2="88.89%" y2="120%" gradientUnits="userSpaceOnUse" id="SvgjsLinearGradient1054"><stop stop-color="#0e2a47" offset="0"></stop><stop stop-color="#00459e" offset="1"></stop></linearGradient></defs></svg>